# xmcd
#
# Track frame offsets:
#	150
#	13128
#	32018
#	45980
#	60449
#	75216
#	87232
#	103012
#	117064
#	132884
#	141997
#	156467
#	176647
#	190499
#
# Disc length: 2704 seconds
#
# Revision: 1
# Processed by: cddbd v1.5.2PL0 Copyright (c) Steve Scherf et al.
# Submitted via: audiograbber 1.83.01
#
DISCID=b10a8e0e
DTITLE=Whisky River - Whisky River ll
DYEAR=1900
DGENRE=Country
TTITLE0=Standing on a rock
TTITLE1=If hollywood don't need you
TTITLE2=Guitars and cadillacs
TTITLE3=You ain't going nowhere
TTITLE4=Gentle on my mind
TTITLE5=Get back
TTITLE6=Shes not crying anymore
TTITLE7=Victim of lifes circumstances
TTITLE8=Thats where i belong
TTITLE9=A hard days night
TTITLE10=We All Get Lucky Sometimes
TTITLE11=I'll fly away
TTITLE12=The way back home
TTITLE13=Singing the blues
EXTD=
EXTT0=
EXTT1=
EXTT2=
EXTT3=
EXTT4=
EXTT5=
EXTT6=
EXTT7=
EXTT8=
EXTT9=
EXTT10=
EXTT11=
EXTT12=
EXTT13=
PLAYORDER=
